<svg xmlns="http://www.w3.org/2000/svg" viewBox="0 0 900.48 1020"><title>safari-pinned-tab</title><g id="Layer_2" data-name="Layer 2"><g id="Layer_2-2" data-name="Layer 2"><path d="M447.43,865.16l-1.59-30.43c-2.7-51.84-.33-231.55,143.62-367.19C689,373.71,804.91,350.44,865.13,344.91l27.37-2.51,3.72,27.23c11.1,81.24.39,161.17-31,231.14C763.51,827.63,489.32,860.51,477.7,861.8ZM842.14,405.74C786,414.89,702.23,440.23,628.87,509.36c-104.43,98.4-123.23,227.1-125.71,290,70.72-14.56,239.17-64.94,309.65-222.1C840.86,514.69,845.23,453,842.14,405.74Z"/><path d="M453.05,865.16l-30.27-3.36c-11.62-1.29-285.82-34.17-387.54-261-31.37-70-42.09-149.9-31-231.14L8,342.4l27.37,2.51c60.21,5.53,176.1,28.8,275.67,122.63C455,603.18,457.34,782.89,454.63,834.73ZM58.33,405.74C55.25,453,59.62,514.68,87.68,577.26c70.47,157.16,238.91,207.54,309.64,222.1-2.48-62.9-21.28-191.6-125.71-290C198.24,440.22,114.48,414.89,58.33,405.74Z"/><path d="M451.13,1020a28.74,28.74,0,0,1-28.73-28.73V28.73a28.73,28.73,0,0,1,57.46,0V991.27A28.73,28.73,0,0,1,451.13,1020Z"/><path d="M483.36,344.94c-3.87,0-6.66-.12-8.11-.19l-29.94-1.56,2.83-29.86C450.31,290.56,463,212.41,535.52,163c52.13-35.53,106.25-36.31,133.9-33.59l27.33,2.68-1.43,27.42c-2,37.28-13.67,72.27-33.88,101.16C607,338.48,513.05,344.94,483.36,344.94ZM633.2,186.79a141.73,141.73,0,0,0-65.33,23.72c-31.48,21.45-47.21,51.36-55,74.62,30.51-4.67,74.19-18.3,101.51-57.37A129.24,129.24,0,0,0,633.2,186.79Z"/><path d="M415.79,344.94c-29.7,0-123.67-6.46-178.07-84.24-20.23-28.93-31.94-63.92-33.88-101.18l-1.43-27.42,27.32-2.67c27.65-2.69,81.78-1.92,133.91,33.59,72.5,49.39,85.2,127.54,87.37,150.31l2.83,29.85-29.94,1.57C422.45,344.82,419.66,344.94,415.79,344.94ZM266,186.79a129.44,129.44,0,0,0,18.86,41c27.32,39.07,71,52.7,101.51,57.37-7.83-23.26-23.56-53.17-55-74.62A141.77,141.77,0,0,0,266,186.79Z"/><path d="M451.15,847.61a14.37,14.37,0,0,1-6.68-27.1,461.46,461.46,0,0,0,209-222.94,14.36,14.36,0,1,1,26.27,11.62A490.1,490.1,0,0,1,457.8,846,14.26,14.26,0,0,1,451.15,847.61Z"/><path d="M451.12,847.61a14.2,14.2,0,0,1-6.65-1.65,490.2,490.2,0,0,1-222-236.77,14.37,14.37,0,1,1,26.28-11.62,461.33,461.33,0,0,0,209,222.94,14.37,14.37,0,0,1-6.68,27.1Z"/></g></g></svg>